<svg width="24" height="24" viewBox="0 0 24 24" fill="none" xmlns="http://www.w3.org/2000/svg">
<path d="M21.3274 21.3346V21.3339H21.332V14.5463C21.332 11.2258 20.6149 8.66797 16.7203 8.66797C14.8481 8.66797 13.5917 9.69204 13.0788 10.6629H13.0246V8.97797H9.33203V21.3339H13.177V15.2157C13.177 13.6048 13.4834 12.0471 15.4848 12.0471C17.4568 12.0471 17.4862 13.8855 17.4862 15.319V21.3346H21.3274Z" fill="#DCFF28"/>
<path d="M2.66797 8.66797H6.66797V21.3346H2.66797V8.66797Z" fill="#DCFF28"/>
<path d="M5.0013 2.66797C3.71319 2.66797 2.66797 3.70832 2.66797 4.99042C2.66797 6.27253 3.71319 7.33463 5.0013 7.33463C6.28941 7.33463 7.33463 6.27253 7.33463 4.99042C7.33383 3.70832 6.2886 2.66797 5.0013 2.66797V2.66797Z" fill="#DCFF28"/>
</svg>
